{"title":"The.Woodsman.2004.DVDRip.XviD-INFERNO","uid":7108666,"size":1937450860,"categoryP":"video","categoryS":"movies","magnet":"?xt=urn:btih:252dfc46ef7ba989745034d2a3278e7941158e3f&amp;dn=The.Woodsman.2004.DVDRip.XviD-INFERNO&amp;tr=udp%3A%2F%2Ftracker.openbittorrent.com%3A80&amp;tr=udp%3A%2F%2Fopen.demonii.com%3A1337&amp;tr=udp%3A%2F%2Ftracker.coppersurfer.tk%3A6969&amp;tr=udp%3A%2F%2Fexodus.desync.com%3A6969","seeders":2,"leechers":0,"uploader":"maximersk","files":1,"time":1331958235,"description":"The.Woodsman.2004.DVDRip.XviD-INFERNO\n\n\n\n\n\n\n\n\nPlot\n\nA convicted pedophile -- paroled after 12 years -- returns to his hometown eager to rebuild his life. But as he settles into a lumberyard job and begins a relationship with a co-worker, he struggles to suppress his inner demons. \n\nGeneral Information\n\nFormat : AVI\nFormat/Info : Audio Video Interleave\nFile size : 1.80 GiB\nDuration : 1h 27mn\nOverall bit rate : 2 958 Kbps\nStars: Kevin Bacon,Kyra Sedgwick,Mos Def,Benjamin Bratt,David Alan Grier,Eve,Kevin Rice,Michael Shannon,Hannah Pilkes,Carlos Leon,Gina Philips\nDirector: Nicole Kassell\nGenre: Dramas,Indie Movies,Crime Dramas,Indie Dramas,Social Issue Dramas &lt;a href=&quot;\nhttp://www.imdb.com/title/tt0361127/&quot; rel=&quot;nofollow&quot; target=&quot;_NEW&quot;&gt;\nhttp://www.imdb.com/title/tt0361127/&lt;/a&gt;\n\nVideo Information\n\nID : 0\nFormat : MPEG-4 Visual\nFormat profile : Advanced Simple@L5\nFormat settings, BVOP : 2\nFormat settings, QPel : No\nFormat settings, GMC : No warppoints\nFormat settings, Matrix : Default (H.263)\nCodec ID : XVID\nCodec ID/Hint : XviD\nDuration : 1h 27mn\nBit rate : 2 503 Kbps\nWidth : 720 pixels\nHeight : 384 pixels\nDisplay aspect ratio : 1.875\nFrame rate : 23.976 fps\nColor space : YUV\nChroma subsampling : 4:2:0\nBit depth : 8 bits\nScan type : Progressive\nCompression mode : Lossy\nBits/(Pixel*Frame) : 0.378\nStream size : 1.53 GiB (85%)\nWriting library : XviD 1.2.1\n\nAudio Information\n\nID : 1\nFormat : AC-3\nFormat/Info : Audio Coding 3\nMode extension : CM (complete main)\nCodec ID : 2000\nDuration : 1h 27mn\nBit rate mode : Constant\nBit rate : 448 Kbps\nChannel(s) : 6 channels\nChannel positions : Front: L C R, Side: L R, LFE\nSampling rate : 48.0 KHz\nBit depth : 16 bits\nCompression mode : Lossy\nStream size : 280 MiB (15%)\nAlignment : Aligned on interleaves\nInterleave, duration : 64 ms (1.53 video frames)\nInterleave, preload duration : 192 ms\nTitle : VTS_01_1 T80 3_2ch 448Kbps DELAY 0ms_new\n","torrent":{"xt":"urn:btih:252dfc46ef7ba989745034d2a3278e7941158e3f","amp;dn":"The.Woodsman.2004.DVDRip.XviD-INFERNO","amp;tr":["udp%3A%2F%2Ftracker.openbittorrent.com%3A80","udp%3A%2F%2Fopen.demonii.com%3A1337","udp%3A%2F%2Ftracker.coppersurfer.tk%3A6969","udp%3A%2F%2Fexodus.desync.com%3A6969"],"infoHash":"252dfc46ef7ba989745034d2a3278e7941158e3f","infoHashBuffer":{"type":"Buffer","data":[37,45,252,70,239,123,169,137,116,80,52,210,163,39,142,121,65,21,142,63]},"announce":[],"urlList":[]}}